<svg version="1.0" xmlns="http://www.w3.org/2000/svg" width="618.667" height="618.667" viewBox="0 0 464 464"><path d="M228.2 6.8 5 7l.2 225.8.3 225.7 225.8.3 225.7.2V275.8c.1-207.8 0-268.1-.3-268.4-1.1-.8-33.9-.9-228.5-.6zm-33.2 42c0 29.6.3 40.1 1.2 41 .9.9 13.1 1.2 48.8 1.2 35.7 0 47.9-.3 48.8-1.2.9-.9 1.2-11.4 1.2-41V9h43.5c23.9 0 43.5.2 43.5.5s-2.1 9-4.8 19.3l-4.7 18.7-.3-17.5c-.1-9.6-.5-18.1-.7-18.9-1.9-4.9-2.4 4.5-2.5 41.4l-.2 41 10.9-.2c7-.1 11.3.3 12.2 1 1.1.9 1.5.9 1.8-.1.6-1.5 8.5-1.6 10.1 0 .8.8 1.5.8 2.4.1.8-.7 6.6-1.1 14.1-1.2 12 0 12.7.1 12.7 1.9 0 1.1.7 2 1.5 2s1.5-.9 1.5-1.9c0-1.8.8-1.9 9.5-2h9.5V456H8V9h187v39.8zm195.6-38.1c-.3 1-2.1 7.4-3.9 14.3-2.2 8-4.7 14.4-6.8 17.9-3.1 4.9-3.4 6.2-3.6 13.5-.1 4.9-.9 10.5-2.1 14.1l-2 6-.1-7.4c-.1-6 1.1-12.2 6.6-33.7L385.4 9h2.9c2.2 0 2.7.4 2.3 1.7zm6.4-1.1c0 .4-1.4 6-3.1 12.5-2 7.3-3.8 12-4.7 12.4-.8.3-1.6.4-1.8.3-.1-.2 1.3-5.7 3.1-12.3 2.5-8.9 3.1-12.1 2.2-12.7-.7-.5-.1-.8 1.6-.8 1.5 0 2.7.3 2.7.6zm27 .9c0 1.7-7.1 30.7-7.7 31.4-.6.8-5.3-4.3-5.3-5.8 0-.9 1.6-6.8 3.4-13.1 2.3-7.9 3-11.7 2.2-12.2-.6-.4-1.2-.5-1.4-.3-.2.2-1.9 5.6-3.8 12.1-1.8 6.4-3.5 11.9-3.7 12.1-.3.2-1.6-.1-3-.6l-2.5-1 2.9-10.7c2.2-8.3 2.6-11 1.6-11.6-1.4-.9-1.3-1.2-4.7 11.7-2.5 9.4-2.9 10-5.4 10.3-2.3.3-2.7 0-2.2-1.5 4.6-15.4 5.6-20.7 4.4-21.4-.7-.5 4.5-.9 12-.9 11.2 0 13.2.2 13.2 1.5zm13-.3c0 .7-4.5 18.8-9.8 40.3l-9.8 39-4.7.3c-5.6.4-5.5.8-2.3-11.5 1.5-5.9 3.3-10.4 5-12.3 3.4-4.1 5-10.4 3.9-15.5-.7-3.3-.1-7.3 3.7-22.7L427.5 9h4.8c3.1 0 4.7.4 4.7 1.2zm13-.4c0 .5-3.2 16.3-7 35.3-3.9 18.9-7.5 36.8-8.1 39.6l-1 5.3h-6.5c-3.5 0-6.4-.4-6.4-.9 0-1.3 19.1-78.4 19.6-79.3.7-1 9.4-1.1 9.4 0zm5 20.6c0 11.1-.3 20.6-.7 21-.5.4-2.8 9.2-5.3 19.4l-4.5 18.7-3.9.3c-3.6.3-3.8.2-3.3-2 .3-1.3 4-19.5 8.3-40.5 4.3-21 8.1-38 8.6-37.7.4.3.8 9.6.8 20.8zM291 49v38h-92V11h92v38zm107-12.3c0 .6-7.8 30.8-8.5 33.1-.6 1.7-4.5-.7-4.5-2.7 0-1.1 4.7-19.4 7.6-29.4.5-1.6 5.4-2.6 5.4-1zm7.2.5c1.4 1.2 1.1 3-3.3 18.2-2.6 9.3-5 17.1-5.3 17.3-.9.9-4.7-.9-4.3-2 .2-.7 2.4-8.7 4.8-18 2.4-9.2 4.9-16.7 5.5-16.7.5 0 1.7.6 2.6 1.2zm-19.3 14.2c-1.9 6.9-3.7 12.6-4.1 12.6-1.9 0-1.5-4.5 1.1-13.9 2.5-9 4.6-13 5.9-11.6.2.2-1.1 6-2.9 12.9zm28.6-5.3c.5 1.6-.1 4.8-3.6 18.2-.7 2.6-2 4.4-4.2 5.7-6.7 4.1-6.8 3.4-1.9-14l4.6-16 2.3 2.2c1.2 1.1 2.5 2.9 2.8 3.9zm-34.4 3c-.5 1.3-1 1.9-1 1.2-.1-1.5 1-4.5 1.5-4 .3.2 0 1.5-.5 2.8zm36.4 8.9c-.9 4.1-1.7 3.3-.9-.9.4-1.7.9-3 1.1-2.7.3.2.2 1.9-.2 3.6zM455 76v14h-7.8l3.5-14c2-7.7 3.7-14 3.9-14 .2 0 .4 6.3.4 14zm-76.7 3.1c-2 7.3-3.3 10.5-4.5 10.7-1.9.4-1.9.7 1.9-13.3 3.3-12.4 3.3-12.4 4.5-9.9.7 1.5.2 4.8-1.9 12.5zm9.7-4.8c0 .7-.8 4.3-1.8 8.2-1.6 6.3-2.1 7-4.5 7.3-1.5.2-2.7-.1-2.7-.7 0-1.3 4-16.3 4.7-17.4.6-1 4.3 1.1 4.3 2.6zm18.7 7-2.1 8.7h-4.9c-3.6 0-4.8-.3-4.4-1.3.3-.7 1.2-4 2.2-7.3 1.6-5.7 1.8-5.9 6.3-7.4 2.6-.9 4.8-1.5 4.9-1.5.1 0-.8 3.9-2 8.8zM396 75.6c0 .3-.9 3.7-2.1 7.5-1.8 6-2.4 6.9-4.4 6.9h-2.4l2-7c1-3.8 1.9-7.2 1.9-7.5 0-.3 1.1-.5 2.5-.5s2.5.3 2.5.6z"/><path d="M354.7 86.7c-3 4.8-25.5 43.6-32.7 56.5-3.3 5.9-6.1 9.8-7.1 9.8-.8 0-3.7-1.4-6.5-3.2-8.2-5.2-26.3-13.5-35.9-16.4-8.6-2.6-10-2.7-31.5-2.8-26.5-.1-32.3.7-47.6 7-6 2.5-12.7 5.2-15 6.1l-4 1.6-32-24C107.8 95.2 97 87.6 96.2 88.4c-.6.7 5.7 10.3 31.9 48.8 10.4 15.2 18.9 28.3 18.9 29.1 0 .8-3.4 6-7.5 11.7-9.6 13.2-18.8 31.5-22 44.2-4.7 18.6-5.3 45.3-1.5 61.3 1.5 6.1 1.4 6.3-4.9 9.5-3.3 1.6-6.2 3.4-6.5 3.9-.7 1.1 4.2 2.1 10.6 2.1h4.9l2.5 5.5c3.8 8.2 4 11.4 1 14.9-3.2 3.6-2.5 4.8 2.5 4 4.8-.8 5.8 0 14.4 11.3l6.2 8.2-1.8 6.8c-1 3.7-1.8 7.8-1.8 9.1-.1 2.7 1 2.6 9.8-1.4 2.9-1.3 5.9-2.4 6.6-2.4.6 0 3.6 1.7 6.6 3.8 3 2 8.6 5.6 12.5 7.9 4.2 2.5 7.5 5.2 8.2 6.8.9 2 1.7 2.5 3 1.9 2.7-1.2 5.9-.8 16.5 1.9 5.3 1.4 14.5 3.3 20.4 4.2 10.4 1.5 10.9 1.7 15 5.6 2.2 2.3 4.6 3.8 5.2 3.4.6-.3 2-2.4 3.1-4.5 1.8-3.5 2.5-4 7.7-5 8.6-1.7 22.9-5.8 29.7-8.6 3.3-1.3 6.5-2.4 7.1-2.4.6 0 3.8 2 6.9 4.5 3.2 2.5 6.2 4.2 6.7 3.9.5-.3.9-3.8 1-7.7 0-4 .3-8 .7-8.9.4-.9 4.3-4.6 8.6-8.2 7.3-6.1 8.2-6.6 12.7-6.6 5.5 0 6.3-.8 4.9-4.5-.8-2-.6-3.4.7-5.8 2.3-4.6 11.1-17.4 12.4-18.3.6-.4 3.7-1.2 6.8-1.8 6.6-1.3 7.8-3.5 3.2-6.2-4.1-2.4-4.3-3.4-2.1-10.6 3.6-11.7 6-23.3 7.5-35.7.8-6.8 1.6-12.5 1.7-12.6.2-.1 2.3-.6 4.8-1.1 5.3-1.1 5.9-2.8 1-3.2-7.4-.5-8-.9-8-5.2 0-12-7.1-33.1-17.4-51.8-2.5-4.5-4.6-9.1-4.6-10.1s3.4-20.4 7.6-43.2c7.3-40.3 9.3-53.9 8.1-53.9-.4 0-1.7 1.7-3 3.7zm-1.7 13.8c-3.5 20.2-9.6 53.5-12.1 65.9l-3 14.8 3.9 6.7c9.9 16.7 16.3 33.5 18.6 49.3.8 5.1 1.3 9.4 1.2 9.5-.1.1-4.4-.2-9.6-.7-5.2-.5-29.1-2.3-53-4-52.1-3.6-55.2-3.9-54.7-5.4 2.2-6 2.8-5.6-8.7-5.6-11.2 0-12.1.4-9.6 4.9.7 1.4.5 2.3-.9 3.5-3.7 3.3-99.9 47.6-103.5 47.6-3.2 0-6.1-20.8-5.3-37 1.4-27 10.4-50.7 27.2-72 2.8-3.6 6-7.8 7-9.3 1.8-2.8 1.8-2.9-.6-6-12.8-17.4-44.2-63.7-43.1-63.7 1 0 47 34.4 58.9 44.1l7.7 6.2 4.1-1.5c2.2-.9 8.1-3.4 13-5.6 26.6-11.7 58.2-13.2 86.5-4 8.9 2.8 20.9 8.7 30.5 14.7 4.3 2.8 8.2 5.1 8.6 5.1.4 0 6.5-10 13.5-22.3 17.5-30.6 23.5-40.9 23.9-40.5.2.2-.1 2.5-.5 5.3zM239.8 233.9c1.1.6.6 2.3-2.1 7.7l-3.5 6.9-1.6-3.9c-3.8-9.2-3.4-11.6 2.1-11.6 2.1 0 4.4.4 5.1.9zM284 244c39.5 2.7 55.9 3.9 59.5 4.7l2.9.6-3.4 1.1c-1.8.6-3.5 1.6-3.7 2.2-.2.6 4.4 6.2 10.3 12.4 10.5 11 10.7 11.3 8.7 12.9-1.1.9-6.8 4.9-12.7 8.9-5.8 4-10.6 7.7-10.6 8.2 0 .5 2.1 2.6 4.7 4.7 9.6 7.9 10.4 8.8 9.8 10.5-1.1 2.8-7 4.8-15.7 5.4-11.4.7-12.8 1.1-12.8 3.3 0 1.1 1.9 5.8 4.2 10.6 5.9 12.3 5.7 12.5-11.7 11.4l-6-.4-.2 6c-.5 10.8-1 12.2-5.8 15.5-2.4 1.6-4.8 3-5.4 3-.5 0-7.2-4.9-14.8-11-7.6-6-14.1-11-14.4-11-.7 0-1.4 1.4-10 20.5l-6.7 15-5.9.3-6 .3-12.9-15.6-12.8-15.5-10.4 10.2c-7.5 7.5-10.5 9.9-11.1 9-.4-.8-1.1-7.5-1.5-15-.4-7.5-.9-13.9-1.1-14.1-.3-.2-6.8 2.4-14.5 5.9-15.6 7.1-13.5 7.1-21.1.2l-2.6-2.3 2.8-11.7c1.6-6.4 2.9-12.8 2.9-14.1 0-2.3-.2-2.3-4.7-1.7-2.7.4-7.5 1.3-10.8 2-3.3.7-6.4 1-6.8.6-1.3-1.2 1-4.8 8-12.5 3.4-3.8 6.3-7.5 6.3-8.2 0-1-2.4-1.3-9.2-1.3-10.2 0-16.8-.8-16.8-2.1 0-1.2 30.4-15.7 79.5-37.9 13.2-6 24.7-11 25.5-11.2 1.7-.4 3.9 5.1 3.9 9.9.1 5.6 2.7 3.8 6.7-4.8l3.8-8.1 6.5.6c3.7.4 19.9 1.5 36.1 2.6zm77 16.5c0 6.5-.4 9.5-1.1 9.5-1.2 0-10.8-9.7-13.6-13.8-.9-1.2-1.3-2.5-1-2.8.6-.6 9-2.1 13-2.3l2.7-.1v9.5zm-2.5 24.7c-2 7.2-5.9 17-7.1 17.5-1.3.5-12.4-6.1-12.4-7.4 0-1.1 17.2-12.2 18.8-12.3.9 0 1.1.7.7 2.2zm-240 9.9c-.4.5-1.3.9-2.2.9-1.3 0-1.3-.3-.3-1.5 1.3-1.5 3.5-1.1 2.5.6zm18 9.9-7 7-2.2-4.2c-2.7-5.2-2.9-8.5-.5-9.1.9-.3 5.1-.5 9.2-.6l7.4-.1-6.9 7zm219.5 7c1.2.8.9 1-1.2 1-1.6 0-2.8-.5-2.8-1 0-1.3 2-1.3 4 0zm-205.5 16.4c-1.5 5.3-3 9.6-3.4 9.6-.9 0-11.1-14.6-11.1-15.8 0-1.7 14.9-5.4 16.3-4.2.5.4-.3 5.1-1.8 10.4zm188.4-1.4c-3.3 4.9-6.4 8.8-6.8 8.6-1.3-.8-7.5-14.6-6.8-15.2 1.1-1.1 7.7-2.2 14-2.3l5.8-.1-6.2 9zm-5.9 16.1c0 .5-.4.9-1 .9-.5 0-1-.7-1-1.6 0-.8.5-1.2 1-.9.6.3 1 1 1 1.6zm-146.4 1.4c.8 3.2.1 20.1-.8 21.1-.5.4-2 .2-3.5-.5-3.9-1.7-19.3-11.4-19.3-12.2 0-.5 20.7-10.6 22.2-10.8.4-.1 1 1 1.4 2.4zm133.8.1c2.2.9.9 3-4.7 7.5-5.9 4.6-6.5 4.2-6.6-4.5l-.1-4.9 5 .7c2.8.4 5.7.9 6.4 1.2zm-166.1 5.2c1.8 1.9 1.7 2-1 3.9-6.3 4.4-7.4 3.7-5.2-4 1.1-4 2.5-4 6.2.1zm120.1 2.4c2.8 2.3 8 6.7 11.4 9.7l6.4 5.4-5.9 2.4c-9.7 4-32.3 9.5-32.3 7.9 0-.3 2.4-5.9 5.4-12.6 5.4-11.9 8.1-17 9.2-17 .4 0 2.9 1.9 5.8 4.2zm-56.8 7c8.7 9 15.6 18 14.6 19-2 2-30.4-3.4-34.9-6.7-1.7-1.3-1.6-1.5 1.2-4.7 7.5-8.4 12-12.8 13-12.8.6 0 3.3 2.4 6.1 5.2zm88.8 7.4c.7 2.7 0 6.4-1.2 6.4-.4 0-2-1.1-3.7-2.5l-3-2.5 2.5-2c3.4-2.6 4.7-2.5 5.4.6zM248 382.8c0 .5-.6 1.6-1.3 2.7-1.6 2-3.3.5-2.3-2 .6-1.6 3.6-2.1 3.6-.7z"/><path d="M195 189.6c-27.5 7.2-28 7.5-32.7 16.9-4 7.9-4 8 2.3 14.5 3.1 3.3 8.1 7.8 11 10.1l5.4 4.1 8.7-4.4c4.9-2.5 12.4-6 16.9-7.8l8.1-3.2 3.2-10.5c2.4-7.8 2.9-10.8 2.1-11.8-1.2-1.4-17.2-9.5-18.7-9.4-.4 0-3.3.7-6.3 1.5zm11.2 3.5c2.2 1.1 3.6 2.4 3.2 2.8-1.2 1.1-43.6 13.2-44.2 12.7-1-1.1 4.1-7.5 7.2-9 3.4-1.6 26-8.4 28.4-8.5.7-.1 3.1.8 5.4 2zm10.3 5.9c.8 1.3-2.3 14-4.1 16.7-2.5 3.9-4.8 2.8-9.3-4.5-2.3-3.7-4.2-7.1-4.2-7.7 0-1.1 11.5-5.3 14.8-5.4 1.2-.1 2.4.3 2.8.9zm-18.6 9.9c3.7 4.8 6.3 9.9 5.6 11.1-.8 1.3-7.3 4.5-10.7 5.4-2.3.5-3 .2-4.3-2.3-2.3-4.5-2-14.6.4-17 2.6-2.6 5.4-1.7 9 2.8zm-14.4 3.8c.4 2.7 1 7 1.5 9.8.9 5.2-.3 7.5-3.8 7.5-1.8 0-10.3-6.5-15.1-11.4-4.2-4.4-3.8-5 5.6-8.1 10.3-3.5 11.1-3.4 11.8 2.2zM267 196c-4.7 2.7-9.1 6-9.7 7.2-.7 1.3-1.3 4.3-1.3 6.8v4.6l8.8 5.1c9 5.3 12.9 6.7 22.2 7.8 7.8.9 9 1.4 9 3.6 0 2.8 1.5 2.3 3-.9 2.3-5 6-16.5 6-18.8 0-1.5-1.5-3.3-4.7-5.7-5.1-3.6-21.1-13.3-23.4-14.2-.8-.2-5.2 1.8-9.9 4.5zm15.9 2.2c3.1 1.7 7.8 4.7 10.6 6.5 3.8 2.5 4.5 3.3 2.8 3.3-3.5 0-29.7-5.2-30.7-6.1-1-.9 7.9-6.9 10.2-6.9.8 0 4 1.4 7.1 3.2zm-12 8.4c3.7.8 3.8 1.3.7 5.9-1.4 2-2.6 4.1-2.8 4.7-.5 1.4-5.5-1.1-8.2-4.1-1.3-1.4-1.6-2.8-1.2-4.6.5-2.1 1.2-2.5 4.5-2.5 2.1 0 5.3.3 7 .6zM284 211c.6 1.1 1 4.4.8 7.3l-.3 5.2-4.2-.1c-4.6-.1-8.3-2.5-8.3-5.4 0-2.3 6.7-9 9-9 1.1 0 2.4.9 3 2zm12.4.6 4.8.7-.6 3.8c-1.4 8.5-3.7 10.3-10 7.9-2.4-.9-2.6-1.4-2.6-7.5 0-5.8.2-6.6 1.8-6.1.9.3 3.9.8 6.6 1.2zM262.4 297.9c-9.3 8-13.8 10.5-21.9 12-10.6 2-17.6-.7-29.3-11.3-4-3.6-7.7-6.6-8.3-6.6-1.8 0 4.9 7.7 11.6 13.4 8.1 6.9 11.5 8 22.5 7.4 10.3-.6 17-3.3 24.2-9.7 5.3-4.7 11.4-12.1 10-12.1-.5 0-4.4 3.1-8.8 6.9zM213.8 26.7c-8.7.3-10.8.7-10.8 1.8 0 1.2 1.9 1.5 10.5 1.5H224v11.9l-8.2.3-8.3.3.2 3c.1 1.6.5 6.1.8 9.8l.7 6.8 12.1-.3c10.1-.3 12.2-.6 12.2-1.8 0-1.2-2-1.6-10.5-1.8-6.8-.2-10.7-.7-11.2-1.5-.4-.7-.8-3.3-.8-6V46h16V36c0-7.4-.3-9.9-1.2-9.8-.7.1-6.1.4-12 .5zM255.1 33.9c-4 3.6-6.2 6.2-5.7 7 .5.8 2.3-.1 5.7-3l4.9-4.1V59h-3.5c-2.4 0-3.5.5-3.5 1.5 0 1.2 1.7 1.5 9.5 1.5s9.5-.3 9.5-1.5c0-1.1-1.2-1.5-4.5-1.5h-4.6l.2-14.6c0-8-.3-15-.7-15.4-.5-.5-3.8 1.7-7.3 4.9z"/></svg>